<svg height="35" viewBox="0 0 35 35" width="35" xmlns="http://www.w3.org/2000/svg"><g fill-rule="evenodd"><path d="m20 1.8q.8.2 1.2.6c.2.2.5.7.5.8 0 0 .1.1.1.2.1.3.2.6.2 1.2v.7h.9 1c.3 0 1 .3 1.2.4.1.1.2.2.2.2.1 0 .2.1.4.3.5.5.5.5.5.5 0 .1.1.2.1.3.1.1.2.2.2.2q0 .1.1.1c.2.4.2-.4.2 12.2 0 12.7.1 11.7-.3 12.5-.3.6-.9 1.3-1.5 1.5-.1.1-.2.2-.3.2-.5.2-.4.2-7.5.2-5.9 0-6.9 0-7.3 0-.4-.1-.7-.2-.7-.3q0 0-.1 0c-.4 0-1.7-1.5-1.7-2q0-.1 0-.1c0-.1-.1-.2-.1-.3 0-.3-.1-22.9 0-22.9q0 0 0-.1c0-.4.3-1.1.4-1.2q.1 0 .1 0c0-.1.2-.4.3-.4q0-.1 0-.1c0-.1.7-.7 1-.9.7-.3.8-.3 2-.3h1.1v-.7c0-.7.1-1.3.3-1.6.1 0 .1-.1.2-.2 0-.1.5-.6.6-.7.2-.1.5-.2.6-.2q0 0 .1-.1h.2c.2-.1 5.5-.1 5.8 0zm-2.8 1.7c-.1 0-.7 0-1.3 0l-1.2.1-.3.1c-.3.2-.4.5-.4 1.1l-.1.5h6.3v-.5c-.1-.5-.1-.7-.4-.9-.3-.3-.3-.3-1.4-.3-.6-.1-1.1-.1-1.2-.1zm-.2 3.6h-6.6l-.3.1c-.4.3-.9.8-.9 1.2-.1.1-.1.1-.1.2-.1 0-.1 4.3-.1 11l.1 11 .1.3c.2.6.7 1 1.2 1.2.3.1 12.9.1 13.3 0 .6-.2 1.2-.8 1.3-1.4.1-.4.1-22 0-22.2-.2-.5-.5-.9-1-1.1-.1-.1-.3-.2-.3-.2-.1-.1-2.1-.1-6.7-.1zm1.4 1.1h1.2v1.4l-.2.2c-1 .9-.5 2.4.7 2.4s1.8-1.4.9-2.3l-.4-.3v-1.4h1.3c2 0 2.1.1 2 1.8v.9h-.3c-1 .2-1.5.7-1.6 1.7v.6h-.2c-1.4.4-1.2 2.2.2 2.2.8 0 1.1-.5 1-1.5-.1-1.5 0-2 .7-2h.3v6.5c0 4.7-.1 6.6-.1 6.6-.1 0-.7-.6-.7-.8 0-1.1-1.5-1.5-1.9-.5-.4.8.2 1.6 1.1 1.5h.3l.2.2c.4.4.6.5.8.5l.3.1v2.4h-.5c-.7 0-.7.1-.7-.7s0-.8-.1-1c-.4-.4-1.1 0-.9.6v.8c.1.6.1.7.4 1 .4.3.4.3 1.1.3h.6c.1 0 .1 1-.1 1.2-.2.4-.3.4-1 .5h-.7v-.4-.3l-.7-.7-.7-.7-.1-1.2c0-.6 0-1.2 0-1.3.2-.5 0-.9-.5-.9s-.5 0-.5 2c.1 2-.1 1.6 1.4 3 .5.5.7.5-3.1.5l-3.4-.1v-2.3l-.3-.2c-.3-.4-.3-.5-.1-.8q.5-.6.3-1.3c-.5-1.4-2.5-1.2-2.6.2l-.1.4-.7.7c-.9 1-.9 1-.9-.6v-1l.7-.7c.6-.6.6-.6.7-.5.7.2 1.6-.4 1.5-1.2-.2-1.3-1.9-1.3-2.2 0 0 .3-.5.9-.6.9s-.1-2-.1-4.5v-4.5h1.1v.4c0 .5.2.8.7.7.3 0 .4-.2.4-1 0-1.1-.1-1.1-1.3-1.2h-.9v-2.8-2.8l.1-.2c.1-.1.3-.3.4-.3l.2-.2h3.2zm-6.5 1.6c-.7.2-1 .7-1 1.4s.6 1.3 1.3 1.4c.2 0 .2.1.5.4l.3.3v.6c.1.8.1.9.5.9.5 0 .5-.1.5-1.1v-.8l-.3-.3-.4-.4.1-.1c.5-.6.4-1.7-.3-2.1-.3-.2-.9-.3-1.2-.2zm3 1c0 .6.3.9.8 1.1 1.1.3 1.7-1.4.7-1.9-.7-.5-1.5 0-1.5.8zm5.7.3c-.2.5-1 .3-.9-.3 0-.1.1-.2.1-.2.4-.4.9 0 .8.5zm-4.6-.5c.3.1.2.5-.1.5-.2 0-.3-.3-.1-.4 0-.1.1-.1.2-.1zm-3.7 0c.2 0 .2.1.4.2.1.1.1.2.1.4 0 .4-.5.7-.8.4-.3-.2-.3-.6-.1-.8.2-.1.2-.2.4-.2zm4.8 2.4c-.2 0-6.2 5.9-6.2 6.2 0 .1.1.2.8.9.4.5 1.3 1.3 1.9 1.9 2.5 2.6 3.4 3.5 3.5 3.5 0 0 .2-.2.4-.4.4-.4 2.2-2.3 3.7-3.8.4-.3.8-.8 1-1s.5-.6.7-.8.4-.4.4-.4c-.1-.1-1.4-1.5-3.1-3.1-2.5-2.5-3-3-3.1-3zm5 1.6c-.1 0-.1 0-.3 0-.2-.2-.2-.5 0-.5.4-.2.6.3.3.5zm-9.9 9.4c-.1.1-.4.1-.5 0s-.1-.3.1-.4c.3-.2.6.1.4.4zm10.3.2q0 .2-.3.2c-.2 0-.3-.2-.2-.3.1-.2.5-.1.5.1zm-8.9 2.6c0 .2-.3.5-.6.4-.4 0-.5-.5-.3-.7.4-.4.9-.2.9.3zm2.7.8q0 .1 0 .1c-.1 0-.2.1-.3.2-.8.9-.2 2.4 1 2.4 1.3 0 1.9-1.4 1-2.5 0 0-.2-.1-.3-.2-.4-.2-1.4-.2-1.4 0zm-3.9.3c.1 0 .3.1.4.1l.3.1v.4c.1.3.1.4.2.6l.2.3v1.7h-1.3c-1.8 0-2-.1-2.1-1 0-.5 0-.6.4-.7.2 0 .2 0 .4-.2s.5-.5.8-.8c.6-.6.5-.6.7-.5zm5.2 1c0 .5-.6.7-1 .3-.2-.2-.1-.7.2-.8.4-.2.8.1.8.5z" fill="#072325"/><path d="m19.5 3.7c.5.2.6.5.7 1.1v.5h-2.6c-1.9 0-2.6 0-2.6 0 0-.2.2-.5.3-.6l.2-.2h.8.8l.1-.4c0-.3 0-.5 0-.5 0-.1 2.1-.1 2.3.1zm-2.2 3.4h3.2c1.9 0 3.1.1 3.2.1 0 0 .2.1.3.2.5.2.8.6 1 1.1.1.2.1 21.8 0 22.2-.1.6-.7 1.2-1.3 1.4-.4.1-13 .1-13.3 0-.9-.3-1.3-1-1.3-2.4 0-1-.1-1 .5-1s.6 0 .6-.1q0-.2 0-.2c.1 0 .4-.3.7-.6.4-.4.7-.7.7-.7q.2-.1 0 .1c-.2.2-.1.1.1-.1s1-.3 1-.1c0 .3.5.3.7.1s.2-.2.6-.2l.4-.1v.2q0 .3-.3.7c-.2.3-.2.4.1.8l.3.2v2.3h3.4 3.4c0-.1-.3-.4-.7-.8-1-.9-.9-.6-1-2.6 0-1.7 0-1.8.1-1.7q.1 0 0 0c-.1-.2.1-.3.4-.3q.7.1.5.9v1.3l.1 1.2.7.7.7.7v.3.4h.7c.7-.1.8-.1 1-.5.2-.2.2-1.2.1-1.2 0 0-.3 0-.6 0-.7 0-.7 0-1.1-.3-.3-.3-.3-.4-.4-1 0-.4 0-.7 0-.8-.2-.6.5-1 .9-.6.1.2.1.2.1 1s0 .7.7.7h.5v-2.4l-.3-.1c-.2 0-.4-.1-.8-.5l-.2-.2h-.3c-.7.1-1.3-.3-1.2-.8v-.2h.4c.3 0 .3 0 .4.1.1.2.5.1.5-.1 0-.1 0-.1.2-.2h.4c.1 0 .1 0 .1.2 0 .1.5.8.7.8 0 0 .1-1.9.1-6.6v-6.5h-.3c-.7 0-.8.5-.7 2 .2 1.1-.5 1.8-1.4 1.5-.5-.1-.9-.9-.6-.9.2 0 .6-.2.6-.2q0-.1.1 0c.1.4.5.4.5.1.1-.1 0-.4-.1-.4q-.1 0-.1 0c0-.1 0-.7 0-.8-.2-1.3.4-2.1 1.6-2.3h.3v-.9c.1-1.7 0-1.8-2-1.8h-1.3v1.4l.4.3c.6.6.6 1.5-.1 2-.7.6-1.9.2-2-.7q-.1-.2 0-.1 0 .1 0 .1 0-.1.1-.1.1 0 .2-.1s.1-.1.1-.2c.1 0 .1-.1.1-.1s.1-.2.1-.3c.2-.3.2-.7.1-.7q-.2.1 0 0c0-.1 0-.2 0-.8v-.7h-1.1-1.2v-.4c0-.2 0-.4 0-.5zm2.1 2.7q0 0 0 0s-.1.1-.2.2l-.1.1.1-.1c.1-.1.2-.2.2-.2zm-2.5.6v.1c.2 1.1-.9 1.8-1.7 1.1-.2-.2-.3-.4-.2-.4.1.1.6-.1.6-.2q.1 0 0 0-.1 0 0 0 0-.1.1 0c.3.2.5 0 .4-.3q0-.1 0-.1c.1 0 .2-.1.4-.1zm2.8.3c0 .5.3.7.7.6.3-.2.3-.7 0-.9-.3-.1-.7.1-.7.3zm-6.4.5h.4v.2c0 .2-.1.4-.3.6l-.1.1.4.4.4.4v.8c0 1-.1 1.1-.5 1.1s-.5-.2-.5-.9v-.6l-.4-.4c-.2-.3-.3-.3-.4-.3-.2 0-.4-.1-.3-.1q.2 0 .1-.1c-.1 0 0-.1.1-.2 0-.1.1-.2.1-.3q0 0 .1-.1c.1 0 .1 0-.1-.1h-.1.2q.2-.1.2 0-.1 0 0-.1.1 0 .1 0 .1 0 .1-.1 0 0 0 0c.1 0 .1-.1.1-.2s0-.1.4-.1zm3.9 1.7c.1.1 6.1 6.1 6.1 6.2q0 0-.1.1c0 .1-.4.4-.7.8-.3.3-.9.9-1.3 1.3-1.3 1.3-3.3 3.4-3.7 3.8-.2.2-.4.4-.4.4-.1 0-1-1-4.2-4.3-1.8-1.8-2-2-1.9-2 0 0 2.3-.1 2.6-.1 0 0 .7-.6 1.5-1.4s1.6-1.6 1.7-1.7l.3-.3v-1.4q0-1.4.1-1.4zm4.7 1.1q.1 0 0 0-.1.1-.1.1 0 .1-.1 0 0 0 .1-.1 0 0 .1 0zm-1 .2q0 .1 0 .2 0 .1 0-.1 0-.1 0-.1zm-8.9.4c.5.3.4 2-.1 2.1-.4 0-.6-.2-.6-.8v-.4h-.6c-.3 0-.5 0-.5 0s-.3 0-.6 0h-.5v-.3c0-.1 0-.4 0-.5v-.2h.4.5c.2 0 1.9 0 2 .1zm.8 9.9c-.3.3-.9.5-1.2.3-.2 0-1.4 1.1-1.4 1.3s0 .2-.6.2h-.5v-.4c0-.5.1-.5.3-.5s.7-.6.8-.8c0-.1.1-.2.2-.2q.1 0 .1 0c0-.1 0-.2.1-.2q.1 0 .1 0 0-.1 0-.1.1-.1.1-.2 0 0 .1 0s.2 0 .3-.1h.4q.1-.1.1 0 0 .2.3.2c.2 0 .3-.1.3-.3 0-.1 0-.1.2-.1h.4c.3-.2.2.5-.1.9zm-1.3 2.8c-.1 0-.3.2-.3.3q0 0 0 0 .1 0 .1-.1s0-.1.1-.1q.1-.1.1-.1zm.2 1c-.3.3-.6.7-.7.8-.2.2-.3.3-.5.3-.3 0-.4.1-.3.6 0 .9.2 1 2 1h1.4v-1.7l-.2-.2c-.2-.3-.2-.3-.2-.7v-.4h-.3c-.2-.1-.4-.1-.4-.1-.2-.1-.2-.1-.8.4zm6.8.4s-.1.5-.2.7c-.3.7-1.3 1.1-1.9.7-.1-.1-.2-.2-.2-.2q0-.1-.1-.1-.1.1 0 0c0-.1.1-.1.2-.1q0-.1.1-.1 0-.1 0-.1.1.1.1 0 0-.1.1-.1 0 .1.1 0 0 0 0 0 .1 0 0-.1 0-.1.1 0c.4.2.8 0 .8-.4 0-.1.4-.2.7-.2q.1.1.1 0 0 0 .1 0z" fill="#d7133e"/></g></svg>