<svg height="16" viewBox="0 0 16 16" width="16" xmlns="http://www.w3.org/2000/svg"><g fill-rule="evenodd"><path d="m9.144531.824219c.242188.058593.425781.152343.546875.273437.089844.089844.230469.320313.230469.363282 0 0 .042969.046874.042969.09375.046875.136718.09375.273437.09375.546874v.320313h.867187c.136719 0 .457031.136719.546875.183594.046875.046875.09375.089843.09375.089843.046875 0 .089844.046876.183594.140626.226562.226562.226562.226562.226562.226562 0 .046875.046876.089844.046876.136719.046874.046875.089843.09375.089843.09375 0 .027343.015625.042969.046875.042969.089844.183593.089844-.183594.089844 5.578124 0 5.804688.046875 5.347657-.136719 5.714844-.136719.273438-.410156.59375-.683593.683594-.046876.046875-.09375.09375-.136719.09375-.230469.089844-.183594.089844-3.429688.089844-2.699219 0-3.15625 0-3.335937 0-.183594-.042969-.320313-.089844-.320313-.136719 0 0-.015625 0-.046875 0-.183594 0-.777344-.683594-.777344-.914063 0-.03125 0-.046874 0-.046874 0-.042969-.046874-.089844-.046874-.136719 0-.136719-.042969-10.46875 0-10.46875 0 0 0-.015625 0-.042969 0-.183594.136718-.503906.183593-.550781h.046875c0-.046875.089844-.183594.136719-.183594 0-.027344 0-.042969 0-.042969 0-.046875.320313-.320312.457031-.414062.320313-.136719.367188-.136719.914063-.136719h.503906v-.320313c0-.320312.042969-.59375.136719-.730468.046875 0 .046875-.046875.089844-.089844 0-.046875.230468-.277344.273437-.320312.09375-.046876.230469-.09375.277344-.09375 0 0 .015625-.015626.042969-.042969h.09375c.089843-.046875 2.511718-.046875 2.652343 0zm-1.28125.777343c-.046875 0-.320312 0-.59375 0l-.550781.042969-.136719.046875c-.136719.089844-.183593.230469-.183593.503906l-.042969.226563h2.878906v-.226563c-.046875-.230468-.046875-.320312-.183594-.414062-.136719-.136719-.136719-.136719-.640625-.136719-.273437-.042969-.5-.042969-.546875-.042969zm-.09375 1.644532h-3.015625l-.136718.046875c-.183594.136719-.410157.363281-.410157.546875-.046875.046875-.046875.046875-.046875.089844-.046875 0-.046875 1.96875-.046875 5.03125l.046875 5.027343.046875.136719c.089844.273438.320313.457031.546875.550781.136719.042969 5.898438.042969 6.082032 0 .273437-.09375.546874-.367187.59375-.640625.042968-.183594.042968-10.058594 0-10.148437-.09375-.230469-.230469-.414063-.457032-.503907-.046875-.046874-.136718-.089843-.136718-.089843-.046876-.046875-.960938-.046875-3.066407-.046875zm.640625.503906h.550782v.636719l-.09375.09375c-.457032.410156-.226563 1.097656.320312 1.097656.550781 0 .824219-.640625.414062-1.050781l-.183593-.140625v-.636719h.59375c.914062 0 .960937.042969.914062.820312v.414063h-.136719c-.457031.089844-.6875.320313-.730468.777344v.273437h-.09375c-.640625.183594-.546875 1.003906.09375 1.003906.363281 0 .5-.226562.457031-.683593-.046875-.6875 0-.914063.320313-.914063h.136718v2.96875c0 2.148438-.046875 3.019532-.046875 3.019532-.046875 0-.320312-.277344-.320312-.367188 0-.503906-.683594-.683594-.867188-.226562-.183593.363281.089844.730468.5.683593h.140625l.089844.09375c.183594.179688.273438.226563.367188.226563l.136718.046875v1.097656h-.230468c-.320313 0-.320313.042969-.320313-.320313 0-.367187 0-.367187-.042969-.457031-.183594-.183593-.503906 0-.414062.273438v.367187c.046875.273438.046875.316406.183594.457032.183593.136718.183593.136718.503906.136718h.273437c.046875 0 .046875.457032-.046875.546875-.089844.183594-.136718.183594-.457031.230469h-.320313v-.320312l-.640624-.640626-.042969-.550781c0-.273437 0-.546875 0-.59375.089843-.226562 0-.410156-.230469-.410156-.226562 0-.226562 0-.226562.914063.042968.914062-.046876.730468.640624 1.371093.226563.230469.320313.230469-1.417968.230469l-1.554688-.046875v-1.050781l-.136718-.09375c-.136719-.179688-.136719-.226563-.046876-.363282.152344-.183593.199219-.382812.136719-.59375-.226562-.640624-1.140625-.550781-1.1875.089844l-.046875.183594-.320312.320312c-.410156.457032-.410156.457032-.410156-.277343v-.457031l.320312-.316407c.273438-.277343.273438-.277343.320312-.230469.320313.089844.730469-.183593.683594-.546874-.089844-.597657-.867187-.597657-1.003906 0 0 .136718-.230469.410156-.273438.410156-.046874 0-.046874-.914063-.046874-2.058594v-2.054688h.503906v.179688c0 .230469.089844.367188.320312.320312.136719 0 .179688-.089843.179688-.457031 0-.5-.042969-.5-.59375-.546875h-.410156v-2.558594l.046874-.09375c.042969-.046874.136719-.136718.183594-.136718l.089844-.089844zm-2.96875.730469c-.320312.089843-.457031.320312-.457031.640625 0 .320312.273437.59375.59375.640625.089844 0 .089844.042969.226563.179687l.136718.136719v.277344c.046875.363281.046875.410156.230469.410156.226563 0 .226563-.046875.226563-.503906v-.363281l-.320313-.320313.046875-.046875c.230469-.273438.183594-.777344-.136719-.960938-.136719-.089843-.410156-.136718-.546875-.089843zm1.371094.457031c0 .273438.136719.410156.363281.503906.503907.136719.777344-.640625.320313-.871094-.320313-.226562-.683594 0-.683594.367188zm2.605469.136719c-.09375.230469-.457031.136719-.414063-.136719 0-.046875.046875-.089844.046875-.089844.183594-.183594.410157 0 .367188.226563zm-2.105469-.226563c.140625.042969.09375.226563-.042969.226563-.09375 0-.136719-.136719-.046875-.183594 0-.042969.046875-.042969.089844-.042969zm-1.691406 0c.09375 0 .09375.042969.183594.089844.046874.046875.046874.089844.046874.183594 0 .183594-.230468.320312-.367187.183594-.136719-.09375-.136719-.277344-.042969-.367188.089844-.046875.089844-.089844.179688-.089844zm2.195312 1.09375c-.089844 0-2.832031 2.699219-2.832031 2.835938 0 .046875.042969.089844.363281.410156.183594.230469.59375.59375.871094.871094 1.140625 1.1875 1.550781 1.597656 1.597656 1.597656 0 0 .09375-.089844.183594-.183594.183594-.179687 1.003906-1.050781 1.691406-1.734375.183594-.136719.367188-.367187.457032-.457031.089843-.09375.230468-.277344.320312-.367188.089844-.089843.183594-.183593.183594-.183593-.046875-.042969-.640625-.683594-1.417969-1.417969-1.144531-1.140625-1.371094-1.371094-1.417969-1.371094zm2.285156.734375c-.042968 0-.042968 0-.136718 0-.089844-.09375-.089844-.230469 0-.230469.183594-.089843.273437.136719.136718.230469zm-4.523437 4.296875c-.046875.042969-.183594.042969-.230469 0-.042968-.046875-.042968-.136718.046875-.183594.136719-.09375.273438.046876.183594.183594zm4.707031.089844c0 .0625-.046875.089844-.136718.089844-.089844 0-.136719-.089844-.089844-.136719.042968-.089844.226562-.042969.226562.046875zm-4.066406 1.1875c0 .09375-.140625.230469-.277344.183594-.179687 0-.226562-.226563-.136718-.320313.183593-.183593.414062-.089843.414062.136719zm1.234375.367188v.046874c-.046875 0-.09375.042969-.140625.089844-.363281.410156-.089844 1.097656.457031 1.097656.597657 0 .871094-.640624.460938-1.144531 0 0-.09375-.042969-.140625-.089843-.179688-.089844-.636719-.089844-.636719 0zm-1.785156.136718c.046875 0 .136719.046875.183593.046875l.136719.046875v.179688c.046875.136718.046875.183594.089844.277344l.09375.136718v.777344h-.59375c-.824219 0-.914063-.046875-.960937-.457031 0-.230469 0-.277344.183593-.320313.089844 0 .089844 0 .183594-.09375.089844-.089844.226563-.226562.363281-.363281.273438-.277344.230469-.277344.320313-.230469zm2.378906.457032c0 .230468-.277344.320312-.457031.136718-.09375-.089844-.046875-.320312.089844-.363281.183593-.09375.367187.042969.367187.226563zm0 0" fill="#072325"/><path d="m8.914062 1.691406c.230469.089844.273438.230469.320313.503906v.226563h-1.1875c-.871094 0-1.191406 0-1.191406 0 0-.089844.09375-.226563.140625-.273437l.089844-.089844h.730468l.046875-.183594c0-.136719 0-.230469 0-.230469 0-.042969.960938-.042969 1.050781.046875zm-1.003906 1.554688h1.460938c.867187 0 1.417968.046875 1.464844.046875 0 0 .089843.042969.136718.089843.226563.089844.363282.273438.457032.503907.042968.089843.042968 9.964843 0 10.148437-.046876.273438-.320313.546875-.59375.640625-.183594.042969-5.945313.042969-6.082032 0-.410156-.136719-.59375-.457031-.59375-1.097656 0-.457031-.046875-.457031.226563-.457031.277343 0 .277343 0 .277343-.046875 0-.0625 0-.089844 0-.089844.042969 0 .183594-.136719.320313-.277344.179687-.179687.320313-.320312.320313-.320312.058593-.027344.058593-.011719 0 .046875-.09375.09375-.046876.046875.042968-.046875.09375-.089844.457032-.136719.457032-.042969 0 .136719.230468.136719.320312.042969.09375-.089844.09375-.089844.273438-.089844l.183593-.046875v.09375c0 .089844-.042969.195312-.136719.320312-.089843.136719-.089843.183594.046876.363282l.136718.09375v1.050781h3.109375c0-.046875-.136719-.183594-.320312-.367187-.457031-.410157-.414063-.273438-.457031-1.1875 0-.777344 0-.824219.042968-.777344.03125 0 .03125 0 0 0-.042968-.089844.046875-.136719.183594-.136719.214844.03125.289062.167969.230469.410156v.59375l.042969.550781.640624.640626v.320312h.320313c.320313-.046875.367187-.046875.457031-.230469.09375-.089843.09375-.546875.046875-.546875 0 0-.136719 0-.273437 0-.320313 0-.320313 0-.503906-.136718-.136719-.140626-.136719-.183594-.183594-.457032 0-.183594 0-.320312 0-.367187-.089844-.273438.230468-.457031.414062-.273438.042969.089844.042969.089844.042969.457031 0 .363282 0 .320313.320313.320313h.230468v-1.097656l-.136718-.046875c-.09375 0-.183594-.046875-.367188-.226563l-.089844-.09375h-.140625c-.316406.046875-.59375-.136719-.546875-.367187v-.089844h.183594c.136719 0 .136719 0 .183594.046875.042968.089844.226562.042969.226562-.046875 0-.046875 0-.046875.09375-.089844h.179688c.046875 0 .046875 0 .046875.089844 0 .046875.230469.367188.320312.367188 0 0 .046875-.871094.046875-3.019532v-2.96875h-.136718c-.320313 0-.367188.226563-.320313.914063.089844.5-.230469.820312-.640625.683593-.230469-.042968-.414062-.410156-.273438-.410156.089844 0 .273438-.089844.273438-.089844 0-.03125.015625-.03125.046875 0 .042969.179688.226563.179688.226563.042969.046874-.042969 0-.183593-.046876-.183593-.027343 0-.042968 0-.042968 0 0-.042969 0-.320313 0-.363282-.09375-.59375.179687-.960937.730468-1.050781h.136719v-.414063c.046875-.777343 0-.820312-.914062-.820312h-.59375v.636719l.183593.140625c.273438.273437.273438.683594-.046874.914062-.320313.273438-.867188.089844-.914063-.320312-.03125-.0625-.03125-.078125 0-.046875v.046875c0-.03125.015625-.046875.046875-.046875.027344 0 .058594-.015625.089844-.046875.046875-.042969.046875-.042969.046875-.089844.042969 0 .042969-.046875.042969-.046875s.046874-.089844.046874-.136719c.089844-.136718.089844-.320312.046876-.320312-.0625.03125-.0625.03125 0 0 0-.046875 0-.089844 0-.363282v-.320312h-1.050782v-.183594c0-.09375 0-.183594 0-.230468zm.957032 1.234375s-.042969.046875-.089844.089843l-.046875.046876.046875-.046876c.046875-.042968.089844-.089843.089844-.089843zm-1.140626.273437v.046875c.089844.503907-.414062.820313-.777343.503907-.09375-.09375-.136719-.183594-.09375-.183594.046875.042968.277343-.046875.277343-.09375.027344 0 .027344 0 0 0-.03125 0-.03125 0 0 0 0-.027344.015626-.027344.042969 0 .136719.09375.230469 0 .183594-.136719 0-.03125 0-.042969 0-.042969.046875 0 .09375-.046875.183594-.046875zm1.277344.136719c0 .230469.140625.320313.320313.273437.136719-.089843.136719-.316406 0-.410156-.136719-.046875-.320313.046875-.320313.136719zm-2.925781.230469h.183594v.089844c0 .09375-.042969.183593-.136719.273437l-.046875.046875.367187.367188v.363281c0 .457031-.046874.503906-.226562.503906-.183594 0-.230469-.089844-.230469-.410156v-.277344l-.183593-.179687c-.089844-.136719-.136719-.136719-.183594-.136719-.089844 0-.179688-.046875-.136719-.046875.0625 0 .078125-.015625.046875-.046875-.046875 0 0-.046875.046875-.089844 0-.046875.042969-.09375.042969-.136719 0 0 .015625-.015625.046875-.046875.046875 0 .046875 0-.046875-.046875h-.042969.089844c.0625-.03125.09375-.03125.09375 0-.03125 0-.03125-.015625 0-.042968h.042969c.03125 0 .046874-.015626.046874-.046876.046876 0 .046876-.046874.046876-.09375 0-.042968 0-.042968.179687-.042968zm1.785156.777344c.046875.042968 2.789063 2.789062 2.789063 2.832031 0 0-.015625.015625-.046875.046875 0 .046875-.183594.183594-.320313.367187-.136718.136719-.410156.410157-.59375.59375-.59375.59375-1.507812 1.554688-1.691406 1.734375-.089844.09375-.183594.183594-.183594.183594-.046875 0-.457031-.457031-1.917968-1.964844-.824219-.824218-.914063-.914062-.871094-.914062 0 0 1.050781-.046875 1.191406-.046875 0 0 .320312-.273438.683594-.640625.367187-.363282.730468-.730469.777344-.777344l.136718-.136719v-.636719c0-.429687.015625-.640624.046875-.640624zm2.148438.5c.03125 0 .03125 0 0 0-.03125.03125-.046875.046874-.046875.046874 0 .03125-.015625.03125-.042969 0 0 0 .011719-.015624.042969-.046874zm-.457031.09375v.089843c0 .03125 0 .015625 0-.042969 0-.03125 0-.046874 0-.046874zm-4.070313.183593c.230469.136719.183594.914063-.042969.957031-.183594 0-.277344-.089843-.277344-.363281v-.183593h-.273437c-.136719 0-.226563 0-.226563 0s-.136718 0-.277343 0h-.226563v-.136719c0-.046875 0-.183594 0-.230469v-.089844h.410156c.09375 0 .871094 0 .914063.046875zm.367187 4.523438c-.136718.136719-.410156.230469-.546874.136719-.09375 0-.640626.503906-.640626.59375 0 .09375 0 .09375-.277343.09375h-.226563v-.183594c0-.226563.046875-.226563.136719-.226563s.320313-.277343.367187-.367187c0-.046875.042969-.09375.089844-.09375h.046875c0-.042969 0-.089844.046875-.089844h.042969c0-.03125 0-.046875 0-.046875.03125-.027344.046875-.058594.046875-.089844h.046875c.042969 0 .089844 0 .136719-.046875h.183594c.027343-.03125.042968-.03125.042968 0 0 .0625.046875.09375.136719.09375.09375 0 .136719-.046875.136719-.136718 0-.046876 0-.046876.09375-.046876h.183594c.136718-.09375.089843.226563-.046876.410157zm-.59375 1.28125c-.046874 0-.136718.089843-.136718.136719.03125 0 .042968-.015626.042968-.046876 0-.042968 0-.042968.046876-.042968.03125-.03125.046874-.046875.046874-.046875zm.089844.457031c-.136718.136719-.273437.320312-.320312.367188-.089844.089843-.136719.136718-.226563.136718-.136719 0-.183593.042969-.136719.273438 0 .410156.089844.457031.914063.457031h.640625v-.777344l-.09375-.089843c-.089844-.140626-.089844-.140626-.089844-.320313v-.183594h-.136718c-.09375-.046875-.183594-.046875-.183594-.046875-.09375-.046875-.09375-.046875-.367188.183594zm3.109375.183594s-.046875.226562-.089843.320312c-.136719.320313-.597657.5-.871094.320313-.042969-.046875-.089844-.09375-.089844-.09375 0-.03125-.015625-.046875-.046875-.046875-.03125.03125-.03125.03125 0 0 0-.042969.046875-.042969.09375-.042969 0-.03125.011719-.046875.042969-.046875 0-.03125 0-.046875 0-.046875.03125.03125.046875.03125.046875 0 0-.027344.015625-.042969.046875-.042969 0 .027344.015625.027344.042968 0 .03125 0 .03125-.015625 0-.046875 0-.03125.015626-.03125.046876 0 .183593.089844.367187 0 .367187-.183593 0-.046876.183594-.089844.320313-.089844.027343.03125.042968.03125.042968 0zm0 0" fill="#d7133e"/></g></svg>